<svg xmlns="http://www.w3.org/2000/svg" xmlns:xlink="http://www.w3.org/1999/xlink" version="1.1" x="0px" y="0px" width="200px" height="200px" viewBox="0 0 200 200" enable-background="new 0 0 200 200" xml:space="preserve">
  <g stroke="#ffffff" stroke-width="5">
    <rect fill="#c0e0ff" width="100" height="100" x="-50" y="-50" transform="translate(50, 50)" />
    <rect fill="#90d0ff" width="100" height="100" x="-50" y="-50" transform="translate(50, 150)" />
    <rect fill="#a0d0ff" width="100" height="100" x="-50" y="-50" transform="translate(150, 50)" />
    <rect fill="#d0f0ff" width="100" height="100" x="-50" y="-50" transform="translate(150, 150)" />
  </g>
  <g fill="none" stroke="#19548d">
    <g stroke-width="5">
      <rect width="64" height="64" x="-32" y="-32" transform="translate(50, 50)" />
      <polygon points="0,-36 -31,-21 -31,21 0,36 31,21 31,-21" transform="translate(150, 50)" />
      <polygon points="-15,-36 15,-36 36,-15 36,15 15,36 -15,36 -36,15 -36,-15" transform="translate(50, 150)" />
      <circle r="36" transform="translate(150, 150)" />
    </g>
    <g stroke-width="2" fill="#19548d">
      <g transform="translate(50, 50)">
        <line x1="-32" y1="-32" x2="32" y2="32" />
        <line x1="-32" y1="32" x2="32" y2="-32" />
        <line x1="0" y1="-32" x2="0" y2="32" />
        <line x1="-32" y1="0" x2="32" y2="0" />
        <circle r="3" cx="0" cy="0" />
      </g>
      <g transform="translate(150, 50)">
        <line x1="-31" y1="-21" x2="31" y2="21" />
        <line x1="-31" y1="21" x2="31" y2="-21" />
        <line x1="0" y1="-36" x2="0" y2="36" />
        <circle r="3" cx="0" cy="0" />
      </g>
      <g transform="translate(50, 150)">
        <line x1="-15" y1="36" x2="15" y2="-36" />
        <line x1="-36" y1="15" x2="36" y2="-15" />
        <line x1="36" y1="15" x2="-36" y2="-15" />
        <line x1="15" y1="36" x2="-15" y2="-36" />
        <circle r="3" cx="0" cy="0" />
      </g>
      <g transform="translate(150, 150)">
        <line x1="0" y1="-36" x2="0" y2="36" />
        <line x1="-36" y1="0" x2="36" y2="0" />
        <line x1="-25.5" y1="-25.5" x2="25.5" y2="25.5" />
        <line x1="-25.5" y1="25.5" x2="25.5" y2="-25.5" />
        <circle r="3" cx="0" cy="0" />
      </g>
    </g>
  </g>
</svg>
